<mxfile host="app.diagrams.net" modified="2021-12-12T18:29:28.659Z" agent="5.0 (Macintosh; Intel Mac OS X 10_15_7) AppleWebKit/537.36 (KHTML, like Gecko) Chrome/96.0.4664.55 Safari/537.36" etag="TBYJZeelDDENhyuJZqI8" version="14.6.11" type="github">
  <diagram id="C5RBs43oDa-KdzZeNtuy" name="Page-1">
    <mxGraphModel dx="1694" dy="1056" grid="1" gridSize="10" guides="1" tooltips="1" connect="1" arrows="1" fold="1" page="1" pageScale="1" pageWidth="583" pageHeight="827" math="0" shadow="0">
      <root>
        <mxCell id="WIyWlLk6GJQsqaUBKTNV-0" />
        <mxCell id="WIyWlLk6GJQsqaUBKTNV-1" parent="WIyWlLk6GJQsqaUBKTNV-0" />
        <mxCell id="WIyWlLk6GJQsqaUBKTNV-3" value="Only one of the documents is submitted successfully" style="rounded=0;whiteSpace=wrap;html=1;fontSize=12;glass=0;strokeWidth=1;shadow=0;" parent="WIyWlLk6GJQsqaUBKTNV-1" vertex="1">
          <mxGeometry x="117.5" y="389" width="150" height="50" as="geometry" />
        </mxCell>
        <mxCell id="kkBGDYYdDlyMSQgDSRYE-43" style="edgeStyle=orthogonalEdgeStyle;rounded=0;orthogonalLoop=1;jettySize=auto;html=1;exitX=0.5;exitY=1;exitDx=0;exitDy=0;entryX=1;entryY=0.5;entryDx=0;entryDy=0;" edge="1" parent="WIyWlLk6GJQsqaUBKTNV-1" source="WIyWlLk6GJQsqaUBKTNV-6" target="WIyWlLk6GJQsqaUBKTNV-3">
          <mxGeometry relative="1" as="geometry" />
        </mxCell>
        <mxCell id="kkBGDYYdDlyMSQgDSRYE-45" style="edgeStyle=orthogonalEdgeStyle;rounded=0;orthogonalLoop=1;jettySize=auto;html=1;exitX=0.5;exitY=1;exitDx=0;exitDy=0;entryX=0;entryY=0.5;entryDx=0;entryDy=0;" edge="1" parent="WIyWlLk6GJQsqaUBKTNV-1" source="WIyWlLk6GJQsqaUBKTNV-6" target="kkBGDYYdDlyMSQgDSRYE-34">
          <mxGeometry relative="1" as="geometry" />
        </mxCell>
        <mxCell id="kkBGDYYdDlyMSQgDSRYE-56" style="edgeStyle=orthogonalEdgeStyle;rounded=0;orthogonalLoop=1;jettySize=auto;html=1;exitX=1;exitY=0.5;exitDx=0;exitDy=0;entryX=0;entryY=0.5;entryDx=0;entryDy=0;" edge="1" parent="WIyWlLk6GJQsqaUBKTNV-1" source="WIyWlLk6GJQsqaUBKTNV-6" target="kkBGDYYdDlyMSQgDSRYE-6">
          <mxGeometry relative="1" as="geometry" />
        </mxCell>
        <mxCell id="WIyWlLk6GJQsqaUBKTNV-6" value="Both vax cert &amp;amp; PCR submitted successfully" style="rhombus;whiteSpace=wrap;html=1;shadow=0;fontFamily=Helvetica;fontSize=12;align=center;strokeWidth=1;spacing=6;spacingTop=-4;" parent="WIyWlLk6GJQsqaUBKTNV-1" vertex="1">
          <mxGeometry x="242.5" y="230" width="155" height="120" as="geometry" />
        </mxCell>
        <mxCell id="WIyWlLk6GJQsqaUBKTNV-12" value="S7 state. Badge is picked up and participant proceeds to first on-site test" style="rounded=1;whiteSpace=wrap;html=1;fontSize=12;glass=0;strokeWidth=1;shadow=0;" parent="WIyWlLk6GJQsqaUBKTNV-1" vertex="1">
          <mxGeometry x="890" y="255" width="160" height="70" as="geometry" />
        </mxCell>
        <mxCell id="kkBGDYYdDlyMSQgDSRYE-3" style="edgeStyle=orthogonalEdgeStyle;rounded=0;orthogonalLoop=1;jettySize=auto;html=1;exitX=0.5;exitY=1;exitDx=0;exitDy=0;exitPerimeter=0;entryX=0.5;entryY=0;entryDx=0;entryDy=0;" edge="1" parent="WIyWlLk6GJQsqaUBKTNV-1" source="kkBGDYYdDlyMSQgDSRYE-1" target="kkBGDYYdDlyMSQgDSRYE-2">
          <mxGeometry relative="1" as="geometry" />
        </mxCell>
        <mxCell id="kkBGDYYdDlyMSQgDSRYE-1" value="Start" style="strokeWidth=2;html=1;shape=mxgraph.flowchart.start_1;whiteSpace=wrap;" vertex="1" parent="WIyWlLk6GJQsqaUBKTNV-1">
          <mxGeometry x="290" y="50" width="60" height="40" as="geometry" />
        </mxCell>
        <mxCell id="kkBGDYYdDlyMSQgDSRYE-39" style="edgeStyle=orthogonalEdgeStyle;rounded=0;orthogonalLoop=1;jettySize=auto;html=1;exitX=0.5;exitY=1;exitDx=0;exitDy=0;" edge="1" parent="WIyWlLk6GJQsqaUBKTNV-1" source="kkBGDYYdDlyMSQgDSRYE-2" target="WIyWlLk6GJQsqaUBKTNV-6">
          <mxGeometry relative="1" as="geometry" />
        </mxCell>
        <mxCell id="kkBGDYYdDlyMSQgDSRYE-2" value="S1 state where neither the vaccine certificate nor pre-arrival PCR result is submitted" style="rounded=0;whiteSpace=wrap;html=1;" vertex="1" parent="WIyWlLk6GJQsqaUBKTNV-1">
          <mxGeometry x="240" y="120" width="160" height="70" as="geometry" />
        </mxCell>
        <mxCell id="kkBGDYYdDlyMSQgDSRYE-15" style="edgeStyle=orthogonalEdgeStyle;rounded=0;orthogonalLoop=1;jettySize=auto;html=1;exitX=1;exitY=0.5;exitDx=0;exitDy=0;entryX=0;entryY=0.5;entryDx=0;entryDy=0;" edge="1" parent="WIyWlLk6GJQsqaUBKTNV-1" source="kkBGDYYdDlyMSQgDSRYE-6" target="WIyWlLk6GJQsqaUBKTNV-12">
          <mxGeometry relative="1" as="geometry" />
        </mxCell>
        <mxCell id="kkBGDYYdDlyMSQgDSRYE-6" value="S4 state. All pre-arrival requirements met" style="rounded=1;whiteSpace=wrap;html=1;" vertex="1" parent="WIyWlLk6GJQsqaUBKTNV-1">
          <mxGeometry x="660" y="260" width="120" height="60" as="geometry" />
        </mxCell>
        <mxCell id="kkBGDYYdDlyMSQgDSRYE-28" style="edgeStyle=orthogonalEdgeStyle;rounded=0;orthogonalLoop=1;jettySize=auto;html=1;exitX=0.5;exitY=1;exitDx=0;exitDy=0;entryX=0.5;entryY=0;entryDx=0;entryDy=0;" edge="1" parent="WIyWlLk6GJQsqaUBKTNV-1" source="kkBGDYYdDlyMSQgDSRYE-16" target="kkBGDYYdDlyMSQgDSRYE-18">
          <mxGeometry relative="1" as="geometry" />
        </mxCell>
        <mxCell id="kkBGDYYdDlyMSQgDSRYE-16" value="S3a or S3b state depending on the type of document missing" style="rounded=1;whiteSpace=wrap;html=1;fontSize=12;glass=0;strokeWidth=1;shadow=0;" vertex="1" parent="WIyWlLk6GJQsqaUBKTNV-1">
          <mxGeometry x="180" y="720" width="320" height="40" as="geometry" />
        </mxCell>
        <mxCell id="kkBGDYYdDlyMSQgDSRYE-25" style="edgeStyle=orthogonalEdgeStyle;rounded=0;orthogonalLoop=1;jettySize=auto;html=1;exitX=1;exitY=0.5;exitDx=0;exitDy=0;entryX=0.5;entryY=1;entryDx=0;entryDy=0;" edge="1" parent="WIyWlLk6GJQsqaUBKTNV-1" source="kkBGDYYdDlyMSQgDSRYE-18" target="kkBGDYYdDlyMSQgDSRYE-6">
          <mxGeometry relative="1" as="geometry" />
        </mxCell>
        <mxCell id="kkBGDYYdDlyMSQgDSRYE-29" style="edgeStyle=orthogonalEdgeStyle;rounded=0;orthogonalLoop=1;jettySize=auto;html=1;exitX=0.5;exitY=1;exitDx=0;exitDy=0;entryX=0.103;entryY=1.05;entryDx=0;entryDy=0;entryPerimeter=0;" edge="1" parent="WIyWlLk6GJQsqaUBKTNV-1" source="kkBGDYYdDlyMSQgDSRYE-18" target="kkBGDYYdDlyMSQgDSRYE-16">
          <mxGeometry relative="1" as="geometry" />
        </mxCell>
        <mxCell id="kkBGDYYdDlyMSQgDSRYE-18" value="Missing document uploaded successfully" style="rhombus;whiteSpace=wrap;html=1;shadow=0;fontFamily=Helvetica;fontSize=12;align=center;strokeWidth=1;spacing=6;spacingTop=-4;" vertex="1" parent="WIyWlLk6GJQsqaUBKTNV-1">
          <mxGeometry x="267.5" y="790" width="145" height="110" as="geometry" />
        </mxCell>
        <mxCell id="kkBGDYYdDlyMSQgDSRYE-26" value="Yes" style="text;html=1;align=center;verticalAlign=middle;resizable=0;points=[];autosize=1;strokeColor=none;" vertex="1" parent="WIyWlLk6GJQsqaUBKTNV-1">
          <mxGeometry x="530" y="820" width="40" height="20" as="geometry" />
        </mxCell>
        <mxCell id="kkBGDYYdDlyMSQgDSRYE-33" value="Yes" style="text;html=1;align=center;verticalAlign=middle;resizable=0;points=[];autosize=1;strokeColor=none;" vertex="1" parent="WIyWlLk6GJQsqaUBKTNV-1">
          <mxGeometry x="520" y="270" width="40" height="20" as="geometry" />
        </mxCell>
        <mxCell id="kkBGDYYdDlyMSQgDSRYE-49" style="edgeStyle=orthogonalEdgeStyle;rounded=0;orthogonalLoop=1;jettySize=auto;html=1;exitX=0.5;exitY=1;exitDx=0;exitDy=0;entryX=0.5;entryY=0;entryDx=0;entryDy=0;" edge="1" parent="WIyWlLk6GJQsqaUBKTNV-1" source="kkBGDYYdDlyMSQgDSRYE-34" target="kkBGDYYdDlyMSQgDSRYE-36">
          <mxGeometry relative="1" as="geometry" />
        </mxCell>
        <mxCell id="kkBGDYYdDlyMSQgDSRYE-34" value="PCR document rejected" style="rounded=0;whiteSpace=wrap;html=1;fontSize=12;glass=0;strokeWidth=1;shadow=0;" vertex="1" parent="WIyWlLk6GJQsqaUBKTNV-1">
          <mxGeometry x="370" y="389" width="150" height="50" as="geometry" />
        </mxCell>
        <mxCell id="kkBGDYYdDlyMSQgDSRYE-53" style="edgeStyle=orthogonalEdgeStyle;rounded=0;orthogonalLoop=1;jettySize=auto;html=1;exitX=0.5;exitY=1;exitDx=0;exitDy=0;entryX=0.5;entryY=0;entryDx=0;entryDy=0;entryPerimeter=0;" edge="1" parent="WIyWlLk6GJQsqaUBKTNV-1" source="kkBGDYYdDlyMSQgDSRYE-36" target="kkBGDYYdDlyMSQgDSRYE-50">
          <mxGeometry relative="1" as="geometry" />
        </mxCell>
        <mxCell id="kkBGDYYdDlyMSQgDSRYE-36" value="S2 state. Upload new PCR document" style="rounded=1;whiteSpace=wrap;html=1;" vertex="1" parent="WIyWlLk6GJQsqaUBKTNV-1">
          <mxGeometry x="385" y="480" width="120" height="60" as="geometry" />
        </mxCell>
        <mxCell id="kkBGDYYdDlyMSQgDSRYE-37" value="No" style="text;html=1;align=center;verticalAlign=middle;resizable=0;points=[];autosize=1;strokeColor=none;" vertex="1" parent="WIyWlLk6GJQsqaUBKTNV-1">
          <mxGeometry x="305" y="420" width="30" height="20" as="geometry" />
        </mxCell>
        <mxCell id="kkBGDYYdDlyMSQgDSRYE-51" style="edgeStyle=orthogonalEdgeStyle;rounded=0;orthogonalLoop=1;jettySize=auto;html=1;exitX=1;exitY=0.5;exitDx=0;exitDy=0;exitPerimeter=0;entryX=0.157;entryY=1.019;entryDx=0;entryDy=0;entryPerimeter=0;" edge="1" parent="WIyWlLk6GJQsqaUBKTNV-1" source="kkBGDYYdDlyMSQgDSRYE-50" target="kkBGDYYdDlyMSQgDSRYE-6">
          <mxGeometry relative="1" as="geometry" />
        </mxCell>
        <mxCell id="kkBGDYYdDlyMSQgDSRYE-54" style="edgeStyle=orthogonalEdgeStyle;rounded=0;orthogonalLoop=1;jettySize=auto;html=1;exitX=0;exitY=0.5;exitDx=0;exitDy=0;exitPerimeter=0;entryX=0;entryY=0.5;entryDx=0;entryDy=0;" edge="1" parent="WIyWlLk6GJQsqaUBKTNV-1" source="kkBGDYYdDlyMSQgDSRYE-50" target="kkBGDYYdDlyMSQgDSRYE-36">
          <mxGeometry relative="1" as="geometry">
            <Array as="points">
              <mxPoint x="340" y="625" />
              <mxPoint x="340" y="510" />
            </Array>
          </mxGeometry>
        </mxCell>
        <mxCell id="kkBGDYYdDlyMSQgDSRYE-50" value="Upload successful" style="strokeWidth=2;html=1;shape=mxgraph.flowchart.decision;whiteSpace=wrap;" vertex="1" parent="WIyWlLk6GJQsqaUBKTNV-1">
          <mxGeometry x="385" y="570" width="120" height="110" as="geometry" />
        </mxCell>
        <mxCell id="kkBGDYYdDlyMSQgDSRYE-52" value="Yes" style="text;html=1;align=center;verticalAlign=middle;resizable=0;points=[];autosize=1;strokeColor=none;" vertex="1" parent="WIyWlLk6GJQsqaUBKTNV-1">
          <mxGeometry x="610" y="600" width="40" height="20" as="geometry" />
        </mxCell>
        <mxCell id="kkBGDYYdDlyMSQgDSRYE-55" value="No" style="text;html=1;align=center;verticalAlign=middle;resizable=0;points=[];autosize=1;strokeColor=none;" vertex="1" parent="WIyWlLk6GJQsqaUBKTNV-1">
          <mxGeometry x="340" y="550" width="30" height="20" as="geometry" />
        </mxCell>
        <mxCell id="kkBGDYYdDlyMSQgDSRYE-57" value="No" style="text;html=1;align=center;verticalAlign=middle;resizable=0;points=[];autosize=1;strokeColor=none;" vertex="1" parent="WIyWlLk6GJQsqaUBKTNV-1">
          <mxGeometry x="215" y="820" width="30" height="20" as="geometry" />
        </mxCell>
      </root>
    </mxGraphModel>
  </diagram>
</mxfile>
